<?xml version="1.0" encoding="UTF-8" standalone="no"?>
<!DOCTYPE svg PUBLIC "-//W3C//DTD SVG 1.1//EN"
 "http://www.w3.org/Graphics/SVG/1.1/DTD/svg11.dtd">
<!-- Generated by graphviz version 2.43.0 (0)
 -->
<!-- Title: pair Pages: 1 -->
<svg width="999pt" height="266pt"
 viewBox="0.00 0.00 998.60 265.50" xmlns="http://www.w3.org/2000/svg" xmlns:xlink="http://www.w3.org/1999/xlink">
<g id="graph0" class="graph" transform="scale(1 1) rotate(0) translate(4 261.5)">
<title>pair</title>
<polygon fill="white" stroke="transparent" points="-4,4 -4,-261.5 994.6,-261.5 994.6,4 -4,4"/>
<text text-anchor="middle" x="495.3" y="-7.8" font-family="Times,serif" font-size="14.00">pair</text>
<!-- n5 -->
<g id="node1" class="node">
<title>n5</title>
<polygon fill="none" stroke="black" points="54,-152.54 54,-167.46 38.18,-178 15.82,-178 0,-167.46 0,-152.54 15.82,-142 38.18,-142 54,-152.54"/>
<text text-anchor="middle" x="27" y="-156.3" font-family="Times,serif" font-size="14.00">a</text>
</g>
<!-- x0 -->
<g id="node7" class="node">
<title>x0</title>
<path fill="none" stroke="black" d="M102,-221C102,-221 153,-221 153,-221 159,-221 165,-227 165,-233 165,-233 165,-245 165,-245 165,-251 159,-257 153,-257 153,-257 102,-257 102,-257 96,-257 90,-251 90,-245 90,-245 90,-233 90,-233 90,-227 96,-221 102,-221"/>
<text text-anchor="middle" x="127.5" y="-235.3" font-family="Times,serif" font-size="14.00">0:0 &#45; 0:0</text>
</g>
<!-- n5&#45;&gt;x0 -->
<g id="edge11" class="edge">
<title>n5:e&#45;&gt;x0:w</title>
<path fill="none" stroke="black" d="M54,-160C88.52,-160 59.21,-223.21 80.27,-236.55"/>
<polygon fill="black" stroke="black" points="79.45,-239.95 90,-239 81.16,-233.16 79.45,-239.95"/>
</g>
<!-- x1 -->
<g id="node8" class="node">
<title>x1</title>
<path fill="none" stroke="black" d="M102,-166C102,-166 153,-166 153,-166 159,-166 165,-172 165,-178 165,-178 165,-190 165,-190 165,-196 159,-202 153,-202 153,-202 102,-202 102,-202 96,-202 90,-196 90,-190 90,-190 90,-178 90,-178 90,-172 96,-166 102,-166"/>
<text text-anchor="middle" x="127.5" y="-180.3" font-family="Times,serif" font-size="14.00">1:1 &#45; 0:0</text>
</g>
<!-- n5&#45;&gt;x1 -->
<g id="edge12" class="edge">
<title>n5:e&#45;&gt;x1:w</title>
<path fill="none" stroke="black" d="M54,-160C69.17,-160 70.84,-174.94 80.32,-181.25"/>
<polygon fill="black" stroke="black" points="79.42,-184.63 90,-184 81.34,-177.9 79.42,-184.63"/>
</g>
<!-- x2 -->
<g id="node10" class="node">
<title>x2</title>
<path fill="none" stroke="black" d="M226.5,-124C226.5,-124 277.5,-124 277.5,-124 283.5,-124 289.5,-130 289.5,-136 289.5,-136 289.5,-148 289.5,-148 289.5,-154 283.5,-160 277.5,-160 277.5,-160 226.5,-160 226.5,-160 220.5,-160 214.5,-154 214.5,-148 214.5,-148 214.5,-136 214.5,-136 214.5,-130 220.5,-124 226.5,-124"/>
<text text-anchor="middle" x="252" y="-138.3" font-family="Times,serif" font-size="14.00">2:2 &#45; 0:0</text>
</g>
<!-- n5&#45;&gt;x2 -->
<g id="edge13" class="edge">
<title>n5:e&#45;&gt;x2:w</title>
<path fill="none" stroke="black" d="M54,-160C69.7,-160 167.74,-145.97 202.74,-142.68"/>
<polygon fill="black" stroke="black" points="203.25,-146.16 213,-142 202.79,-139.17 203.25,-146.16"/>
</g>
<!-- x3 -->
<g id="node12" class="node">
<title>x3</title>
<path fill="none" stroke="black" d="M226.5,-69C226.5,-69 277.5,-69 277.5,-69 283.5,-69 289.5,-75 289.5,-81 289.5,-81 289.5,-93 289.5,-93 289.5,-99 283.5,-105 277.5,-105 277.5,-105 226.5,-105 226.5,-105 220.5,-105 214.5,-99 214.5,-93 214.5,-93 214.5,-81 214.5,-81 214.5,-75 220.5,-69 226.5,-69"/>
<text text-anchor="middle" x="252" y="-83.3" font-family="Times,serif" font-size="14.00">3:3 &#45; 0:0</text>
</g>
<!-- n5&#45;&gt;x3 -->
<g id="edge14" class="edge">
<title>n5:e&#45;&gt;x3:w</title>
<path fill="none" stroke="black" d="M54,-160C71.69,-160 73.95,-150.44 90,-143 141.3,-119.21 151.79,-90.58 202.95,-87.31"/>
<polygon fill="black" stroke="black" points="203.11,-90.81 213,-87 202.9,-83.81 203.11,-90.81"/>
</g>
<!-- n6 -->
<g id="node2" class="node">
<title>n6</title>
<polygon fill="none" stroke="black" points="732.1,-33.54 732.1,-48.46 716.28,-59 693.92,-59 678.1,-48.46 678.1,-33.54 693.92,-23 716.28,-23 732.1,-33.54"/>
<text text-anchor="middle" x="705.1" y="-37.3" font-family="Times,serif" font-size="14.00">n</text>
</g>
<!-- c13 -->
<g id="node5" class="node">
<title>c13</title>
<polygon fill="none" stroke="black" points="791.6,-62.5 791.6,-131.5 900.6,-131.5 900.6,-62.5 791.6,-62.5"/>
<text text-anchor="middle" x="805.1" y="-116.3" font-family="Times,serif" font-size="14.00">A</text>
<polyline fill="none" stroke="black" points="791.6,-108.5 818.6,-108.5 "/>
<text text-anchor="middle" x="805.1" y="-93.3" font-family="Times,serif" font-size="14.00">B</text>
<polyline fill="none" stroke="black" points="791.6,-85.5 818.6,-85.5 "/>
<text text-anchor="middle" x="805.1" y="-70.3" font-family="Times,serif" font-size="14.00">S</text>
<polyline fill="none" stroke="black" points="818.6,-62.5 818.6,-131.5 "/>
<text text-anchor="middle" x="846.6" y="-100.8" font-family="Times,serif" font-size="14.00">$9</text>
<text text-anchor="middle" x="846.6" y="-85.8" font-family="Times,serif" font-size="14.00">$mux</text>
<polyline fill="none" stroke="black" points="874.6,-62.5 874.6,-131.5 "/>
<text text-anchor="middle" x="887.6" y="-93.3" font-family="Times,serif" font-size="14.00">Y</text>
</g>
<!-- n6&#45;&gt;c13 -->
<g id="edge15" class="edge">
<title>n6:e&#45;&gt;c13:w</title>
<path fill="none" stroke="black" d="M733.1,-41C759.1,-41 761.54,-66.04 781.47,-72.5"/>
<polygon fill="black" stroke="black" points="781.19,-75.99 791.6,-74 782.22,-69.07 781.19,-75.99"/>
</g>
<!-- n7 -->
<g id="node3" class="node">
<title>n7</title>
<polygon fill="none" stroke="black" points="990.6,-89.54 990.6,-104.46 974.78,-115 952.42,-115 936.6,-104.46 936.6,-89.54 952.42,-79 974.78,-79 990.6,-89.54"/>
<text text-anchor="middle" x="963.6" y="-93.3" font-family="Times,serif" font-size="14.00">x</text>
</g>
<!-- c10 -->
<g id="node4" class="node">
<title>c10</title>
<polygon fill="none" stroke="black" points="654.6,-78 654.6,-116 755.6,-116 755.6,-78 654.6,-78"/>
<text text-anchor="middle" x="667.6" y="-93.3" font-family="Times,serif" font-size="14.00">A</text>
<polyline fill="none" stroke="black" points="680.6,-78 680.6,-116 "/>
<text text-anchor="middle" x="705.1" y="-100.8" font-family="Times,serif" font-size="14.00">$8</text>
<text text-anchor="middle" x="705.1" y="-85.8" font-family="Times,serif" font-size="14.00">$not</text>
<polyline fill="none" stroke="black" points="729.6,-78 729.6,-116 "/>
<text text-anchor="middle" x="742.6" y="-93.3" font-family="Times,serif" font-size="14.00">Y</text>
</g>
<!-- c10&#45;&gt;c13 -->
<g id="edge5" class="edge">
<title>c10:e&#45;&gt;c13:w</title>
<path fill="none" stroke="black" d="M755.6,-97C767.6,-97 772.85,-97 781.48,-97"/>
<polygon fill="black" stroke="black" points="781.6,-100.5 791.6,-97 781.6,-93.5 781.6,-100.5"/>
</g>
<!-- c13&#45;&gt;n7 -->
<g id="edge16" class="edge">
<title>c13:e&#45;&gt;n7:w</title>
<path fill="none" stroke="black" d="M900.6,-97C912.6,-97 917.85,-97 926.48,-97"/>
<polygon fill="black" stroke="black" points="926.6,-100.5 936.6,-97 926.6,-93.5 926.6,-100.5"/>
</g>
<!-- c14 -->
<g id="node6" class="node">
<title>c14</title>
<polygon fill="none" stroke="black" points="201,-179 201,-225 303,-225 303,-179 201,-179"/>
<text text-anchor="middle" x="214.5" y="-209.8" font-family="Times,serif" font-size="14.00">A</text>
<polyline fill="none" stroke="black" points="201,-202 228,-202 "/>
<text text-anchor="middle" x="214.5" y="-186.8" font-family="Times,serif" font-size="14.00">B</text>
<polyline fill="none" stroke="black" points="228,-179 228,-225 "/>
<text text-anchor="middle" x="252.5" y="-205.8" font-family="Times,serif" font-size="14.00">$2</text>
<text text-anchor="middle" x="252.5" y="-190.8" font-family="Times,serif" font-size="14.00">$xor</text>
<polyline fill="none" stroke="black" points="277,-179 277,-225 "/>
<text text-anchor="middle" x="290" y="-198.3" font-family="Times,serif" font-size="14.00">Y</text>
</g>
<!-- c15 -->
<g id="node9" class="node">
<title>c15</title>
<polygon fill="none" stroke="black" points="339,-131 339,-177 441,-177 441,-131 339,-131"/>
<text text-anchor="middle" x="352.5" y="-161.8" font-family="Times,serif" font-size="14.00">A</text>
<polyline fill="none" stroke="black" points="339,-154 366,-154 "/>
<text text-anchor="middle" x="352.5" y="-138.8" font-family="Times,serif" font-size="14.00">B</text>
<polyline fill="none" stroke="black" points="366,-131 366,-177 "/>
<text text-anchor="middle" x="390.5" y="-157.8" font-family="Times,serif" font-size="14.00">$3</text>
<text text-anchor="middle" x="390.5" y="-142.8" font-family="Times,serif" font-size="14.00">$xor</text>
<polyline fill="none" stroke="black" points="415,-131 415,-177 "/>
<text text-anchor="middle" x="428" y="-150.3" font-family="Times,serif" font-size="14.00">Y</text>
</g>
<!-- c14&#45;&gt;c15 -->
<g id="edge6" class="edge">
<title>c14:e&#45;&gt;c15:w</title>
<path fill="none" stroke="black" d="M303,-202C321.38,-202 318.72,-178.23 329.21,-169.32"/>
<polygon fill="black" stroke="black" points="330.66,-172.53 339,-166 328.41,-165.9 330.66,-172.53"/>
</g>
<!-- x0&#45;&gt;c14 -->
<g id="edge1" class="edge">
<title>x0:e&#45;&gt;c14:w</title>
<path fill="none" stroke="black" d="M176.61,-234.65C181.66,-230.06 184.38,-222.87 189.44,-218.3"/>
<polygon fill="none" stroke="black" points="176.24,-234.79 172.02,-240.64 165,-239 169.21,-233.15 176.24,-234.79"/>
<polygon fill="none" stroke="black" points="189.75,-218.19 193.98,-212.35 201,-214 196.77,-219.84 189.75,-218.19"/>
</g>
<!-- x1&#45;&gt;c14 -->
<g id="edge2" class="edge">
<title>x1:e&#45;&gt;c14:w</title>
<path fill="none" stroke="black" d="M177.02,-185.33C181.26,-186.33 184.75,-187.68 189,-188.67"/>
<polygon fill="none" stroke="black" points="176.93,-185.32 170.52,-188.64 165,-184 171.4,-180.69 176.93,-185.32"/>
<polygon fill="none" stroke="black" points="189.07,-188.68 195.48,-185.36 201,-190 194.6,-193.32 189.07,-188.68"/>
</g>
<!-- c16 -->
<g id="node11" class="node">
<title>c16</title>
<polygon fill="none" stroke="black" points="477,-98 477,-144 579,-144 579,-98 477,-98"/>
<text text-anchor="middle" x="490.5" y="-128.8" font-family="Times,serif" font-size="14.00">A</text>
<polyline fill="none" stroke="black" points="477,-121 504,-121 "/>
<text text-anchor="middle" x="490.5" y="-105.8" font-family="Times,serif" font-size="14.00">B</text>
<polyline fill="none" stroke="black" points="504,-98 504,-144 "/>
<text text-anchor="middle" x="528.5" y="-124.8" font-family="Times,serif" font-size="14.00">$4</text>
<text text-anchor="middle" x="528.5" y="-109.8" font-family="Times,serif" font-size="14.00">$xor</text>
<polyline fill="none" stroke="black" points="553,-98 553,-144 "/>
<text text-anchor="middle" x="566" y="-117.3" font-family="Times,serif" font-size="14.00">Y</text>
</g>
<!-- c15&#45;&gt;c16 -->
<g id="edge7" class="edge">
<title>c15:e&#45;&gt;c16:w</title>
<path fill="none" stroke="black" d="M441,-154C455.47,-154 458,-141.18 467.24,-135.58"/>
<polygon fill="black" stroke="black" points="468.22,-138.94 477,-133 466.44,-132.17 468.22,-138.94"/>
</g>
<!-- x2&#45;&gt;c15 -->
<g id="edge3" class="edge">
<title>x2:e&#45;&gt;c15:w</title>
<path fill="none" stroke="black" d="M303.04,-142C311.95,-142 318.02,-142 326.92,-142"/>
<polygon fill="none" stroke="black" points="303,-142 297,-146 291,-142 297,-138 303,-142"/>
<polygon fill="none" stroke="black" points="327,-142 333,-138 339,-142 333,-146 327,-142"/>
</g>
<!-- n4 -->
<g id="node13" class="node">
<title>n4</title>
<ellipse fill="black" stroke="black" cx="616.8" cy="-121" rx="1.8" ry="1.8"/>
</g>
<!-- c16&#45;&gt;n4 -->
<g id="edge8" class="edge">
<title>c16:e&#45;&gt;n4:w</title>
<path fill="none" stroke="black" d="M579,-121C591,-121 596.25,-121 604.88,-121"/>
<polygon fill="black" stroke="black" points="605,-124.5 615,-121 605,-117.5 605,-124.5"/>
</g>
<!-- x3&#45;&gt;c16 -->
<g id="edge4" class="edge">
<title>x3:e&#45;&gt;c16:w</title>
<path fill="none" stroke="black" d="M303.21,-87.16C372.53,-89.07 395.56,-106.96 464.96,-108.84"/>
<polygon fill="none" stroke="black" points="303,-87.16 296.95,-91.08 291,-87 297.05,-83.08 303,-87.16"/>
<polygon fill="none" stroke="black" points="465,-108.84 471.05,-104.92 477,-109 470.95,-112.92 465,-108.84"/>
</g>
<!-- n4&#45;&gt;c10 -->
<g id="edge9" class="edge">
<title>n4:e&#45;&gt;c10:w</title>
<path fill="none" stroke="black" d="M618.6,-121C633.77,-121 635.44,-106.06 644.92,-99.75"/>
<polygon fill="black" stroke="black" points="645.94,-103.1 654.6,-97 644.02,-96.37 645.94,-103.1"/>
</g>
<!-- n4&#45;&gt;c13 -->
<g id="edge10" class="edge">
<title>n4:e&#45;&gt;c13:w</title>
<path fill="none" stroke="black" d="M618.6,-121C634.7,-121 638.53,-124.11 654.6,-125 699.42,-127.48 710.82,-128.1 755.6,-125 767.69,-124.16 772.81,-121.77 781.43,-120.62"/>
<polygon fill="black" stroke="black" points="781.83,-124.11 791.6,-120 781.4,-117.12 781.83,-124.11"/>
</g>
</g>
</svg>
